<svg xmlns="http://www.w3.org/2000/svg" viewBox="0 0 128 128"><path fill="black" d="M64 8c30.9 0 56 25.1 56 56 0 24.7-16 45.7-38.2 53-2.8.5-3.8-1.2-3.8-2.7 0-1.8.1-7.2.1-14.1 0-4.8-1.6-7.9-3.4-9.5 11.2-1.2 23-2.8 23-22 0-4.9-1.7-8.9-4.6-12 .5-1.2 2-6 -.4-12.5-3.7-1.2-12.2 4.8-12.2 4.8-3.5-1-7.4-1.5-11.2-1.5s-7.7.5-11.2 1.5c0 0-8.5-6-12.2-4.8-2.4 6.5-.9 11.3-.4 12.5-2.9 3.1-4.6 7-4.6 12 0 19 11.8 20.8 23 22-1.4 1.2-2.7 3.3-3.2 6.4-2.9 1.3-10.2 3.5-14.8-4.2-2.8-4.7-7.8-5.1-7.8-5.1-5-.1-.3 3.1-.3 3.1 3.3 1.5 5.6 7.3 5.6 7.3 3 9.1 17.4 6 17.4 6 0 4.7 0 9.2 0 10.5 0 1.5-1 3.2-3.8 2.7C24 109.7 8 88.7 8 64c0-30.9 25.1-56 56-56z"/></svg>