<svg xmlns="http://www.w3.org/2000/svg" viewBox="0 0 127 127"><path fill="#E01E5A" d="M27.2 80c0-7.5-6.1-13.6-13.6-13.6S0 72.5 0 80c0 7.5 6.1 13.6 13.6 13.6h13.6V80z"/><path fill="#E01E5A" d="M33.9 80c0-7.5-6.1-13.6-13.6-13.6-7.5 0-13.6 6.1-13.6 13.6v33.9c0 7.5 6.1 13.6 13.6 13.6 7.5 0 13.6-6.1 13.6-13.6V80z"/><path fill="#36C5F0" d="M33.9 27.2c-7.5 0-13.6 6.1-13.6 13.6s6.1 13.6 13.6 13.6h13.6V40.8c0-7.5-6.1-13.6-13.6-13.6z"/><path fill="#36C5F0" d="M33.9 0C26.4 0 20.3 6.1 20.3 13.6v33.9c0 7.5 6.1 13.6 13.6 13.6s13.6-6.1 13.6-13.6V13.6C47.5 6.1 41.4 0 33.9 0z"/><path fill="#2EB67D" d="M99.8 47.5c7.5 0 13.6-6.1 13.6-13.6S107.3 20.3 99.8 20.3s-13.6 6.1-13.6 13.6v13.6h13.6z"/><path fill="#2EB67D" d="M99.8 53.9c7.5 0 13.6-6.1 13.6-13.6V6.4c0-7.5-6.1-13.6-13.6-13.6s-13.6 6.1-13.6 13.6v40.3c0 7.5 6.1 13.6 13.6 13.6z"/><path fill="#ECB22E" d="M47.5 99.8c0 7.5 6.1 13.6 13.6 13.6s13.6-6.1 13.6-13.6-6.1-13.6-13.6-13.6H47.5v13.6z"/><path fill="#ECB22E" d="M40.8 99.8c0 7.5 6.1 13.6 13.6 13.6s13.6-6.1 13.6-13.6V65.9c0-7.5-6.1-13.6-13.6-13.6s-13.6 6.1-13.6 13.6v33.9z"/></svg>